<svg width="16" height="16" viewBox="0 0 16 16" fill="none" xmlns="http://www.w3.org/2000/svg">
<path fill-rule="evenodd" clip-rule="evenodd" d="M8.00001 15.1667C4.04668 15.1667 0.833344 11.9534 0.833344 8.00004C0.833344 4.04671 4.04668 0.833374 8.00001 0.833374C11.9533 0.833374 15.1667 4.04671 15.1667 8.00004C15.1667 11.9534 11.9533 15.1667 8.00001 15.1667ZM8.00001 1.83337C4.60001 1.83337 1.83334 4.60004 1.83334 8.00004C1.83334 11.4 4.60001 14.1667 8.00001 14.1667C11.4 14.1667 14.1667 11.4 14.1667 8.00004C14.1667 4.60004 11.4 1.83337 8.00001 1.83337ZM6.11334 10.3867C5.98667 10.3867 5.86001 10.34 5.76001 10.24C5.56667 10.0467 5.56667 9.72666 5.76001 9.53332L7.29334 7.99999L5.76001 6.46666C5.56667 6.27332 5.56667 5.95332 5.76001 5.75999C5.95334 5.56666 6.27334 5.56666 6.46667 5.75999L8.00001 7.29332L9.53334 5.75999C9.72667 5.56666 10.0467 5.56666 10.24 5.75999C10.4333 5.95332 10.4333 6.27332 10.24 6.46666L8.70667 7.99999L10.24 9.53332C10.4333 9.72666 10.4333 10.0467 10.24 10.24C10.14 10.34 10.0133 10.3867 9.88667 10.3867C9.76001 10.3867 9.63334 10.34 9.53334 10.24L8.00001 8.70666L6.46667 10.24C6.37334 10.34 6.24001 10.3867 6.11334 10.3867Z" fill="#999FA6"/>
</svg>
