<svg width="17" height="18" viewBox="0 0 17 18" fill="none" xmlns="http://www.w3.org/2000/svg">
<g filter="url(#filter0_d_7069_984)">
<path d="M4.26999 12.2799C3.98999 11.9199 3.63999 11.1899 3.02999 10.2799C2.67999 9.77993 1.81999 8.82993 1.55999 8.33993C1.37257 8.04216 1.31818 7.67958 1.40999 7.33993C1.56695 6.69414 2.17956 6.26574 2.83999 6.33993C3.3508 6.44254 3.82022 6.6929 4.18999 7.05993C4.44817 7.3031 4.68566 7.56735 4.89999 7.84993C5.05999 8.04993 5.09999 8.12993 5.27999 8.35993C5.45999 8.58993 5.57999 8.81993 5.48999 8.47993C5.41999 7.97993 5.29999 7.13993 5.12999 6.38993C4.99999 5.81993 4.96999 5.72993 4.84999 5.29993C4.72999 4.86993 4.65999 4.50993 4.52999 4.01993C4.41116 3.5385 4.3177 3.05116 4.24999 2.55993C4.12395 1.93163 4.21565 1.27914 4.50999 0.709928C4.85939 0.381297 5.37192 0.29456 5.80999 0.489928C6.25059 0.815264 6.5791 1.26958 6.74999 1.78993C7.01206 2.43032 7.18696 3.10299 7.26999 3.78993C7.42999 4.78993 7.73999 6.24993 7.74999 6.54993C7.74999 6.17993 7.67999 5.39993 7.74999 5.04993C7.81935 4.68505 8.07295 4.38224 8.41999 4.24993C8.7178 4.15855 9.03284 4.13801 9.33999 4.18993C9.65003 4.25474 9.92466 4.43307 10.11 4.68993C10.3417 5.27332 10.4703 5.89253 10.49 6.51993C10.5168 5.97051 10.6108 5.42646 10.77 4.89993C10.9371 4.66448 11.1811 4.49472 11.46 4.41993C11.7906 4.35948 12.1294 4.35948 12.46 4.41993C12.7311 4.51056 12.9682 4.68144 13.14 4.90993C13.3518 5.44027 13.48 6.00027 13.52 6.56993C13.52 6.70993 13.59 6.17993 13.81 5.82993C13.9243 5.49053 14.211 5.2379 14.5621 5.1672C14.9132 5.09651 15.2754 5.21849 15.5121 5.4872C15.7489 5.75591 15.8243 6.13053 15.71 6.46993C15.71 7.11993 15.71 7.08993 15.71 7.52993C15.71 7.96993 15.71 8.35993 15.71 8.72993C15.6736 9.31511 15.5933 9.89673 15.47 10.4699C15.296 10.977 15.0537 11.4581 14.75 11.8999C14.2644 12.4399 13.8632 13.0501 13.56 13.7099C13.4848 14.0377 13.4512 14.3737 13.46 14.7099C13.459 15.0206 13.4993 15.3299 13.58 15.6299C13.1711 15.6732 12.7589 15.6732 12.35 15.6299C11.96 15.5699 11.48 14.7899 11.35 14.5499C11.2857 14.4211 11.154 14.3396 11.01 14.3396C10.866 14.3396 10.7343 14.4211 10.67 14.5499C10.45 14.9299 9.95999 15.6199 9.61999 15.6599C8.94999 15.7399 7.56999 15.6599 6.47999 15.6599C6.47999 15.6599 6.65999 14.6599 6.24999 14.2999C5.83999 13.9399 5.41999 13.5199 5.10999 13.2399L4.26999 12.2799Z" fill="white"/>
<path fill-rule="evenodd" clip-rule="evenodd" d="M4.26999 12.2799C3.98999 11.9199 3.63999 11.1899 3.02999 10.2799C2.67999 9.77993 1.81999 8.82993 1.55999 8.33993C1.37257 8.04216 1.31818 7.67958 1.40999 7.33993C1.56695 6.69414 2.17956 6.26574 2.83999 6.33993C3.3508 6.44254 3.82022 6.6929 4.18999 7.05993C4.44817 7.3031 4.68566 7.56735 4.89999 7.84993C5.05999 8.04993 5.09999 8.12993 5.27999 8.35993C5.45999 8.58993 5.57999 8.81993 5.48999 8.47993C5.41999 7.97993 5.29999 7.13993 5.12999 6.38993C4.99999 5.81993 4.96999 5.72993 4.84999 5.29993C4.72999 4.86993 4.65999 4.50993 4.52999 4.01993C4.41116 3.5385 4.3177 3.05116 4.24999 2.55993C4.12395 1.93163 4.21565 1.27914 4.50999 0.709928C4.85939 0.381297 5.37192 0.29456 5.80999 0.489928C6.25059 0.815264 6.5791 1.26958 6.74999 1.78993C7.01206 2.43032 7.18696 3.10299 7.26999 3.78993C7.42999 4.78993 7.73999 6.24993 7.74999 6.54993C7.74999 6.17993 7.67999 5.39993 7.74999 5.04993C7.81935 4.68505 8.07295 4.38224 8.41999 4.24993C8.7178 4.15855 9.03284 4.13801 9.33999 4.18993C9.65003 4.25474 9.92466 4.43307 10.11 4.68993C10.3417 5.27332 10.4703 5.89253 10.49 6.51993C10.5168 5.97051 10.6108 5.42646 10.77 4.89993C10.9371 4.66448 11.1811 4.49472 11.46 4.41993C11.7906 4.35948 12.1294 4.35948 12.46 4.41993C12.7311 4.51056 12.9682 4.68144 13.14 4.90993C13.3518 5.44027 13.48 6.00027 13.52 6.56993C13.52 6.70993 13.59 6.17993 13.81 5.82993C13.9243 5.49053 14.211 5.2379 14.5621 5.1672C14.9132 5.09651 15.2754 5.21849 15.5121 5.4872C15.7489 5.75591 15.8243 6.13052 15.71 6.46993C15.71 7.11993 15.71 7.08993 15.71 7.52993C15.71 7.96993 15.71 8.35993 15.71 8.72993C15.6736 9.31511 15.5933 9.89673 15.47 10.4699C15.296 10.977 15.0537 11.4581 14.75 11.8999C14.2644 12.4399 13.8632 13.0501 13.56 13.7099C13.4848 14.0377 13.4512 14.3737 13.46 14.7099C13.459 15.0206 13.4993 15.3299 13.58 15.6299C13.1711 15.6731 12.7589 15.6731 12.35 15.6299C11.96 15.5699 11.48 14.7899 11.35 14.5499C11.2857 14.4211 11.154 14.3396 11.01 14.3396C10.866 14.3396 10.7343 14.4211 10.67 14.5499C10.45 14.9299 9.95999 15.6199 9.61999 15.6599C8.94999 15.7399 7.56999 15.6599 6.47999 15.6599C6.47999 15.6599 6.65999 14.6599 6.24999 14.2999C5.83999 13.9399 5.41999 13.5199 5.10999 13.2399L4.26999 12.2799Z" stroke="#202125" stroke-width="0.75" stroke-linecap="round" stroke-linejoin="round"/>
<path d="M12.75 12.8258V9.37399C12.75 9.16737 12.5821 8.99988 12.375 8.99988C12.1679 8.99988 12 9.16737 12 9.37399V12.8258C12 13.0324 12.1679 13.1999 12.375 13.1999C12.5821 13.1999 12.75 13.0324 12.75 12.8258Z" fill="#202125"/>
<path d="M10.77 12.8245L10.75 9.37095C10.7488 9.16483 10.5799 8.9987 10.3728 8.99988C10.1657 9.00107 9.99881 9.16913 10 9.37525L10.02 12.8288C10.0212 13.0349 10.1901 13.2011 10.3972 13.1999C10.6043 13.1987 10.7712 13.0306 10.77 12.8245Z" fill="#202125"/>
<path d="M8.00001 9.37887L8.02001 12.8253C8.02121 13.0334 8.19008 13.2011 8.39719 13.1999C8.60429 13.1987 8.7712 13.029 8.76999 12.8209L8.74999 9.37448C8.74879 9.16638 8.57992 8.99867 8.37281 8.99988C8.16571 9.0011 7.9988 9.17077 8.00001 9.37887Z" fill="#202125"/>
</g>
<defs>
<filter id="filter0_d_7069_984" x="0.191333" y="0.0117188" width="16.7461" height="17.8588" filterUnits="userSpaceOnUse" color-interpolation-filters="sRGB">
<feFlood flood-opacity="0" result="BackgroundImageFix"/>
<feColorMatrix in="SourceAlpha" type="matrix" values="0 0 0 0 0 0 0 0 0 0 0 0 0 0 0 0 0 0 127 0" result="hardAlpha"/>
<feOffset dy="1"/>
<feGaussianBlur stdDeviation="0.4"/>
<feColorMatrix type="matrix" values="0 0 0 0 0 0 0 0 0 0 0 0 0 0 0 0 0 0 0.5 0"/>
<feBlend mode="normal" in2="BackgroundImageFix" result="effect1_dropShadow_7069_984"/>
<feBlend mode="normal" in="SourceGraphic" in2="effect1_dropShadow_7069_984" result="shape"/>
</filter>
</defs>
</svg>
